<?xml version="1.0" encoding="us-ascii" standalone="no"?><svg xmlns="http://www.w3.org/2000/svg" xmlns:xlink="http://www.w3.org/1999/xlink" contentStyleType="text/css" height="416px" preserveAspectRatio="none" style="width:704px;height:416px;background:#FFFFFF;" version="1.1" viewBox="0 0 704 416" width="704px" zoomAndPan="magnify"><defs/><g><text fill="#888888" font-family="sans-serif" font-size="10" lengthAdjust="spacing" textLength="65" x="626.3333" y="19.65">EFWMC Academy</text><text fill="#000000" font-family="sans-serif" font-size="14" font-weight="bold" lengthAdjust="spacing" textLength="140" x="280.6667" y="47.0099">Nvim Ultimate Editor</text><rect fill="#F1F1F1" height="37.4999" rx="12.5" ry="12.5" style="stroke:#181818;stroke-width:1.5;" width="59.3333" x="430" y="204.4997"/><path d="M441,219.1663 L441,228.4996 L442.1667,228.4996 L442.1667,219.1663 L441,219.1663 M443.3333,219.1663 L443.3333,223.8329 L445.6667,223.8329 L445.6667,224.9996 L450.3333,224.9996 L448,222.7013 L450.3333,220.3329 L446.8333,220.3329 L446.8333,219.1663 L443.3333,219.1663 " fill="#000000" style="stroke:;stroke-width:0.0;stroke-dasharray:;"/><text fill="#000000" font-family="sans-serif" font-size="14" lengthAdjust="spacing" textLength="28" x="451.3333" y="228.0096">Nvim</text><rect fill="#F1F1F1" height="37.4999" rx="12.5" ry="12.5" style="stroke:#181818;stroke-width:1.5;" width="41" x="539.3333" y="204.4997"/><text fill="#000000" font-family="sans-serif" font-size="14" lengthAdjust="spacing" textLength="21" x="549.3333" y="228.0096">Lsp</text><rect fill="#F1F1F1" height="37.4999" rx="12.5" ry="12.5" style="stroke:#181818;stroke-width:1.5;" width="55" x="630.3333" y="89.4998"/><text fill="#000000" font-family="sans-serif" font-size="14" lengthAdjust="spacing" textLength="35" x="640.3333" y="113.0098">Clang</text><path d="M580.3333,223.2496 L590.3333,223.2496 C605.3333,223.2496 605.3333,108.2498 620.3333,108.2498 L630.3333,108.2498 " fill="none" style="stroke:#181818;stroke-width:1.0;"/><rect fill="#F1F1F1" height="37.4999" rx="12.5" ry="12.5" style="stroke:#181818;stroke-width:1.5;" width="41" x="630.3333" y="146.9998"/><text fill="#000000" font-family="sans-serif" font-size="14" lengthAdjust="spacing" textLength="21" x="640.3333" y="170.5097">lua</text><path d="M580.3333,223.2496 L590.3333,223.2496 C605.3333,223.2496 605.3333,165.7497 620.3333,165.7497 L630.3333,165.7497 " fill="none" style="stroke:#181818;stroke-width:1.0;"/><rect fill="#F1F1F1" height="37.4999" rx="12.5" ry="12.5" style="stroke:#181818;stroke-width:1.5;" width="48" x="630.3333" y="204.4997"/><text fill="#000000" font-family="sans-serif" font-size="14" lengthAdjust="spacing" textLength="28" x="640.3333" y="228.0096">rust</text><path d="M580.3333,223.2496 L590.3333,223.2496 C605.3333,223.2496 605.3333,223.2496 620.3333,223.2496 L630.3333,223.2496 " fill="none" style="stroke:#181818;stroke-width:1.0;"/><rect fill="#F1F1F1" height="37.4999" rx="12.5" ry="12.5" style="stroke:#181818;stroke-width:1.5;" width="48" x="630.3333" y="261.9996"/><text fill="#000000" font-family="sans-serif" font-size="14" lengthAdjust="spacing" textLength="28" x="640.3333" y="285.5095">java</text><path d="M580.3333,223.2496 L590.3333,223.2496 C605.3333,223.2496 605.3333,280.7496 620.3333,280.7496 L630.3333,280.7496 " fill="none" style="stroke:#181818;stroke-width:1.0;"/><rect fill="#F1F1F1" height="37.4999" rx="12.5" ry="12.5" style="stroke:#181818;stroke-width:1.5;" width="62" x="630.3333" y="319.4995"/><text fill="#000000" font-family="sans-serif" font-size="14" lengthAdjust="spacing" textLength="42" x="640.3333" y="343.0095">nodejs</text><path d="M580.3333,223.2496 L590.3333,223.2496 C605.3333,223.2496 605.3333,338.2495 620.3333,338.2495 L630.3333,338.2495 " fill="none" style="stroke:#181818;stroke-width:1.0;"/><path d="M489.3333,223.2496 L499.3333,223.2496 C514.3333,223.2496 514.3333,223.2496 529.3333,223.2496 L539.3333,223.2496 " fill="none" style="stroke:#181818;stroke-width:1.0;"/><rect fill="#F1F1F1" height="37.4999" rx="12.5" ry="12.5" style="stroke:#181818;stroke-width:1.5;" width="48" x="332" y="204.4997"/><text fill="#000000" font-family="sans-serif" font-size="14" lengthAdjust="spacing" textLength="28" x="342" y="228.0096">Tips</text><rect fill="#F1F1F1" height="72.4998" rx="12.5" ry="12.5" style="stroke:#181818;stroke-width:1.5;" width="272" x="10" y="71.9999"/><text fill="#000000" font-family="sans-serif" font-size="14" lengthAdjust="spacing" textLength="252" x="20" y="95.5099">Create plantuml automatically brutly</text><text fill="#000000" font-family="monospace" font-size="14" lengthAdjust="spacing" textLength="203" x="20" y="113.0098">plantuml&#160;file.puml&#160;&gt;&#160;file.png</text><text fill="#000000" font-family="sans-serif" font-size="14" lengthAdjust="spacing" textLength="7" x="20" y="130.5097">&#160;</text><path d="M332,223.2496 L322,223.2496 C307,223.2496 307,108.2498 292,108.2498 L282,108.2498 " fill="none" style="stroke:#181818;stroke-width:1.0;"/><rect fill="#F1F1F1" height="37.4999" rx="12.5" ry="12.5" style="stroke:#181818;stroke-width:1.5;" width="118" x="164" y="164.4997"/><text fill="#000000" font-family="sans-serif" font-size="14" lengthAdjust="spacing" textLength="98" x="174" y="188.0096">Using org-mode</text><path d="M332,223.2496 L322,223.2496 C307,223.2496 307,183.2496 292,183.2496 L282,183.2496 " fill="none" style="stroke:#181818;stroke-width:1.0;"/><rect fill="#F1F1F1" height="37.4999" rx="12.5" ry="12.5" style="stroke:#181818;stroke-width:1.5;" width="125" x="157" y="221.9996"/><text fill="#000000" font-family="sans-serif" font-size="14" lengthAdjust="spacing" textLength="105" x="167" y="245.5095">Using telescope</text><path d="M332,223.2496 L322,223.2496 C307,223.2496 307,240.7496 292,240.7496 L282,240.7496 " fill="none" style="stroke:#181818;stroke-width:1.0;"/><rect fill="#F1F1F1" height="37.4999" rx="12.5" ry="12.5" style="stroke:#181818;stroke-width:1.5;" width="111" x="171" y="279.4995"/><text fill="#000000" font-family="sans-serif" font-size="14" lengthAdjust="spacing" textLength="91" x="181" y="303.0095">Using lazygit</text><path d="M332,223.2496 L322,223.2496 C307,223.2496 307,298.2495 292,298.2495 L282,298.2495 " fill="none" style="stroke:#181818;stroke-width:1.0;"/><rect fill="#F1F1F1" height="37.4999" rx="12.5" ry="12.5" style="stroke:#181818;stroke-width:1.5;" width="118" x="164" y="336.9995"/><text fill="#000000" font-family="sans-serif" font-size="14" lengthAdjust="spacing" textLength="98" x="174" y="360.5094">Using terminal</text><path d="M332,223.2496 L322,223.2496 C307,223.2496 307,355.7494 292,355.7494 L282,355.7494 " fill="none" style="stroke:#181818;stroke-width:1.0;"/><path d="M430,223.2496 L420,223.2496 C405,223.2496 405,223.2496 390,223.2496 L380,223.2496 " fill="none" style="stroke:#181818;stroke-width:1.0;"/><text fill="#000000" font-family="sans-serif" font-size="14" lengthAdjust="spacing" textLength="56" x="322.6667" y="399.0093">figure 1</text><!--SRC=[LL7HJjj047pVhzYd2b8b9Mv0hHj5W4agfGcWaj3dmrwRHUUpTRSNoNnzrmOAVRgvsRdPlTdp8CPBpQweJGkvQOKRXoLNqHDEuP5CGHwNgp_R32zolTGT28ibl3vmZNihN1iXN1OiZGVuZFDFfJNLeYy3Z4Qu2QqU8yoiSTM0R3J3wMEG0JoPmmlZceAU0e2bKZ1mGOF3ZjlGbzFCKz-hLIU9jKKJfT7kd1jhEtpmKMm7yrnD5l1FLBAbITkZnIlMCUPVNbG_XhRxmAx2nbVZMjaFb92ba3VjHywQvwvY-K_bDK1Z0Sv9StpD4cxx2VRR3Hx8XpxLwIGvIRvEfidHoZFUv8B92IRJTFOzFPrXThV3lduCHpzlDnYQw7F2WeDuVeZzMevXhK7Xx-WqT4hnfYMtllhrHk3I7TWthYOdiBxVlWlEPkDB5hmZhwFW_HQkg3JHYhxG6FGBAUvtg_4tsEYAegdK-_aHiaPzVPTYTlqN]--></g></svg>